<svg xmlns="http://www.w3.org/2000/svg" xmlns:xlink="http://www.w3.org/1999/xlink" version="1.1" x="0px" y="0px" viewBox="0 0 100 100" enable-background="new 0 0 100 100" xml:space="preserve"><g><path d="M65.864,41.877c1.444-3.13-0.843-14.685-2.648-17.333c1.685-0.602,5.176-4.333-10.593-12.519   C36.854,3.84,17.715,7.21,6.762,21.896c-10.954,14.685,5.898,34.908,8.486,40.806c2.588,5.898,2.468,8.611,2.468,8.611L13.045,92   h37.471c0.362-1,1.194-7.616,1.746-10.928c2.528,0.361,6.938,0.605,11.632,0.845c4.694,0.241,3.053-5.535,4.016-8.861   c-7.959-0.34-10.7-2.324-13.126-6.205c2.528,2.419,11.125,1.106,12.208,0.985c1.083-0.12,0.918-1.769-0.045-3.457   c-0.963-1.688,3.009-4.81,5.537-6.134C75.012,56.921,64.901,45.729,65.864,41.877z"></path><path d="M85.493,37.253l-3.946,3.946c6.303,6.303,9.775,14.683,9.775,23.595s-3.472,17.292-9.775,23.593l3.946,3.948   c7.357-7.356,11.409-17.14,11.409-27.541C96.902,54.389,92.851,44.608,85.493,37.253z"></path><path d="M78.967,43.3l-3.78,3.782c9.767,9.767,9.767,25.657,0,35.425l3.782,3.781c5.741-5.742,8.902-13.373,8.902-21.494   S84.707,49.04,78.967,43.3z"></path></g></svg>